<?xml version="1.0" encoding="UTF-8"?>
<svg version="1.1" xmlns="http://www.w3.org/2000/svg" width="716" height="537">
<path d="M0 0 C37.95 0 75.9 0 115 0 C115 6.27 115 12.54 115 19 C83.65 19 52.3 19 20 19 C20.33 79.72 20.66 140.44 21 203 C53.175 170.825 53.175 170.825 86 138 C86.66 138 87.32 138 88 138 C89.21803284 139.23803711 89.21803284 139.23803711 90.72094727 141.08984375 C96.56916392 147.95928205 103.0776438 154.20036531 109.46484375 160.5625 C110.86753391 161.96332215 112.27000128 163.36436743 113.67225647 164.765625 C117.3409754 168.43054887 121.01268878 172.09245808 124.68505859 175.75372314 C128.44095978 179.49934506 132.19398711 183.24784413 135.94726562 186.99609375 C143.29538554 194.33352953 150.6466758 201.66778005 158 209 C163.27617474 204.59446778 168.17913586 199.94851315 173.01489258 195.06689453 C173.78323425 194.2954863 174.55157593 193.52407806 175.34320068 192.72929382 C176.99971294 191.0656643 178.65509683 189.40091061 180.30945778 187.73514175 C182.92481123 185.1023304 185.54375257 182.47313763 188.16374207 179.84494019 C195.60814456 172.37613054 203.04682499 164.90163965 210.48120117 157.42285156 C215.03674195 152.84061522 219.59707087 148.26319039 224.16043663 143.68874741 C225.89953538 141.94342287 227.63673215 140.19620108 229.37201881 138.44708633 C231.78755506 136.0124553 234.20907642 133.58393426 236.63208008 131.15673828 C237.35260056 130.42745621 238.07312103 129.69817413 238.81547546 128.9467926 C239.47282684 128.29074539 240.13017822 127.63469818 240.80744934 126.95877075 C241.37908719 126.3839905 241.95072504 125.80921024 242.53968525 125.21701241 C244 124 244 124 246 124 C246 123.34 246 122.68 246 122 C247.609375 120.37890625 247.609375 120.37890625 249.75 118.5625 C250.44609375 117.96566406 251.1421875 117.36882812 251.859375 116.75390625 C253.8669308 115.10902932 255.91915592 113.55028873 258 112 C258.02332665 134.40874194 258.04097802 156.81748188 258.05181217 179.22623348 C258.05697563 189.63023725 258.06401926 200.03423349 258.07543945 210.43823242 C258.08538478 219.50290274 258.09185307 228.5675676 258.09408849 237.63224322 C258.09539586 242.43502608 258.09848333 247.23779334 258.10573006 252.04057121 C258.11248789 256.555668 258.11461745 261.07074268 258.11310768 265.58584404 C258.11338412 267.2479718 258.11539064 268.91010026 258.11920547 270.57222366 C258.12413904 272.83149692 258.12299955 275.09068534 258.12025452 277.34996033 C258.12163721 279.25115836 258.12163721 279.25115836 258.12304783 281.19076443 C258 284 258 284 257 285 C255.62386177 285.09644787 254.24280167 285.12371912 252.86328793 285.12304783 C251.96578131 285.1250387 251.06827469 285.12702957 250.1435709 285.12908077 C249.14679294 285.12616811 248.15001497 285.12325544 247.12303162 285.12025452 C246.0752504 285.12111053 245.02746918 285.12196655 243.94793701 285.12284851 C240.39683373 285.12451456 236.84577676 285.11896254 233.29467773 285.11352539 C230.72139265 285.11321932 228.14810748 285.1133521 225.57482243 285.11389065 C219.36006767 285.11442358 213.14532729 285.10979391 206.93057624 285.10338932 C199.74607548 285.09620613 192.56157981 285.09539549 185.3770752 285.09460449 C166.39721451 285.08934821 147.41735704 285.07538718 128.4375 285.0625 C86.053125 285.041875 43.66875 285.02125 0 285 C0 190.95 0 96.9 0 0 Z " fill="#8249BA" transform="translate(205,126)"/>
<path d="M0 0 C60.39 0 120.78 0 183 0 C183 5.61 183 11.22 183 17 C122.61 17 62.22 17 0 17 C0 11.39 0 5.78 0 0 Z " fill="#554ECC" transform="translate(181,428)"/>
<path d="M0 0 C-9.39655278 12.86124207 -19.85429717 24.83794013 -30.6875 36.5 C-31.29378235 37.15400787 -31.9000647 37.80801575 -32.52471924 38.48184204 C-47.27175445 54.25341684 -60.53608549 67.00222448 -82.95695496 67.89685059 C-95.70784585 68.11088257 -108.52131932 66.52402616 -121 64 C-116.83519337 59.03436079 -112.50293369 54.35518777 -107.9140625 49.78125 C-107.25344818 49.11967896 -106.59283386 48.45810791 -105.91220093 47.77648926 C-104.52342439 46.38703655 -103.13340162 44.99882844 -101.7421875 43.61181641 C-99.63427071 41.50924719 -97.531735 39.40140396 -95.4296875 37.29296875 C-94.0706329 35.9345752 -92.711268 34.57649202 -91.3515625 33.21875 C-90.73358795 32.59875122 -90.1156134 31.97875244 -89.47891235 31.33996582 C-86.33196343 28.20953119 -83.1293512 25.23463665 -79.73974609 22.3671875 C-76.75102372 19.78521165 -74.71628833 17.40397255 -72.8125 13.90625 C-56.88259826 -10.05392479 -25.07668891 -2.17279552 0 0 Z M-62.4296875 20.98828125 C-63.2998319 22.31685744 -64.15838342 23.65317132 -65 25 C-65.66 25.99 -66.32 26.98 -67 28 C-46.97720922 30.73125624 -46.97720922 30.73125624 -28.8671875 24.0625 C-24.40281827 19.86430375 -20.1979391 15.25122337 -17 10 C-17 9.34 -17 8.68 -17 8 C-43.00135391 5.25287799 -43.00135391 5.25287799 -62.4296875 20.98828125 Z " fill="#DC6E7A" transform="translate(557,160)"/>
<path d="M0 0 C-4.29794724 5.03174311 -8.63359531 10.02761087 -13 15 C-13.73432251 15.84183838 -14.46864502 16.68367676 -15.22521973 17.55102539 C-21.75460911 25.00612787 -28.42477126 32.31498874 -35.25 39.5 C-36.04562851 40.3384848 -36.04562851 40.3384848 -36.85733032 41.19390869 C-59.85371451 65.28477855 -59.85371451 65.28477855 -74.45635986 66.33654785 C-81.80841874 66.39992288 -88.99122047 65.1780271 -96 63 C-95.28571838 62.29651932 -94.57143677 61.59303864 -93.83551025 60.86824036 C-91.00377874 58.03561235 -88.31256271 55.08300684 -85.63183594 52.1081543 C-80.36754136 46.30036173 -75.01634063 40.58051412 -69.61236191 34.90256023 C-66.35849466 31.47754021 -63.14193913 28.02947527 -59.99511719 24.50561523 C-41.43975521 3.787807 -28.2531807 -5.06120545 0 0 Z " fill="#EB885F" transform="translate(612,169)"/>
<path d="M0 0 C5.56204783 3.93413139 9.43931628 8.30670174 11.5625 14.8125 C12.49317255 20.72556098 11.8822226 25.77692415 8.89453125 30.9921875 C5.21423303 36.02156865 0.73807263 39.55217906 -5.4375 40.8125 C-11.28095789 41.2837466 -16.35763149 40.95438399 -21.4375 37.8125 C-25.99770002 33.55366972 -30.09351156 29.61892945 -30.67578125 23.17578125 C-30.83695108 16.55085305 -30.71133153 11.12815196 -26.4375 5.8125 C-18.79546503 -1.21448186 -10.07384582 -3.48005583 0 0 Z " fill="#BD539F" transform="translate(414.4375,181.1875)"/>
<path d="M0 0 C5.73249094 3.40938017 9.34247918 7.73179537 11.51953125 14.05078125 C12.30056513 20.12649828 12.07964914 25.87104279 8.99609375 31.26171875 C5.26453404 35.78302654 -0.583481 39.65806155 -6.49609375 40.25390625 C-13.42553693 40.39927918 -18.01031624 38.80838977 -23.73046875 34.73828125 C-28.06559198 30.50168354 -29.99325319 26.27659944 -30.5390625 20.19140625 C-30.35872666 13.60313696 -27.55113323 8.19190719 -23.05859375 3.4921875 C-16.9389008 -2.09733403 -7.70097826 -2.94698853 0 0 Z " fill="#9D4CAF" transform="translate(369.48046875,238.94921875)"/>
<path d="M0 0 C2.9795099 -0.26653946 5.7488582 -0.34767784 8.7265625 -0.29296875 C9.58937836 -0.28872391 10.45219421 -0.28447906 11.34115601 -0.28010559 C14.10275197 -0.26328392 16.86362383 -0.22562598 19.625 -0.1875 C21.49478114 -0.17245764 23.3645737 -0.15876846 25.234375 -0.14648438 C29.82319658 -0.11336906 34.41147544 -0.06156339 39 0 C33.10658909 10.09081902 25.04250178 21.99356625 14 27 C1.59792107 30.24395326 -12.41547377 28.35982111 -25 27 C-20.37179414 21.42846556 -15.41361462 16.32504491 -10.25 11.25 C-8.73205382 9.75756552 -7.21632645 8.26287002 -5.703125 6.765625 C-5.03958008 6.11368164 -4.37603516 5.46173828 -3.69238281 4.79003906 C-1.81490236 2.90495134 -1.81490236 2.90495134 0 0 Z " fill="#E0717B" transform="translate(453,143)"/>
<path d="M0 0 C4.13264038 3.39362704 5.65687427 7.09639115 6.875 12.25 C7.17035627 17.86176922 6.00500426 21.45110496 2.8125 26.0625 C-1.41521097 30.29021097 -4.8761755 31.96704773 -10.8125 32.3125 C-16.24776314 32.12423034 -19.92290814 30.44783318 -23.9375 26.8125 C-28.10683612 22.27805252 -28.55838212 17.40156962 -28.328125 11.3984375 C-27.77294321 7.72313407 -26.3697534 5.58256637 -23.9375 2.8125 C-23.31875 2.07 -22.7 1.3275 -22.0625 0.5625 C-15.76329644 -4.6250794 -6.71967475 -4.41334571 0 0 Z " fill="#C75899" transform="translate(506.9375,247.1875)"/>
<path d="M0 0 C0.33 0.66 0.66 1.32 1 2 C1.78375 2.2475 2.5675 2.495 3.375 2.75 C6.89486037 4.42612399 7.38554857 6.55094466 9 10 C9.99 10.33 10.98 10.66 12 11 C10.60305639 15.19834127 8.62717931 17.83590529 5.625 21.0625 C4.46871094 22.31740234 4.46871094 22.31740234 3.2890625 23.59765625 C2.53367187 24.39042969 1.77828125 25.18320313 1 26 C0.08347656 27.11181641 0.08347656 27.11181641 -0.8515625 28.24609375 C-6.05370162 32.49293096 -14.51494847 31.11956984 -20.9375 31.0625 C-21.90751953 31.05798828 -22.87753906 31.05347656 -23.87695312 31.04882812 C-26.2513676 31.0371315 -28.62565021 31.02074086 -31 31 C-26.45934794 25.55694706 -21.64921611 20.49739646 -16.625 15.5 C-15.90828125 14.77941406 -15.1915625 14.05882813 -14.453125 13.31640625 C-9.80126903 8.67294713 -5.0033955 4.26208918 0 0 Z M6 11 C7 13 7 13 7 13 Z " fill="#F39C52" transform="translate(527,102)"/>
<path d="M0 0 C3.4290034 2.04281054 5.9158558 4.09708087 7 8 C6.92403094 12.78605069 6.69269933 15.01342823 3.9375 18.9375 C0.25741766 21.5213876 -2.52857383 22.28932758 -7 22 C-10.96204597 20.72915507 -12.54092127 19.65159562 -14.9375 16.25 C-16.23752565 12.27345095 -16.09810338 10.02637905 -15 6 C-10.85686918 -0.14787154 -7.13693064 -0.90137705 0 0 Z " fill="#BC56A2" transform="translate(349,124)"/>
<path d="M0 0 C3.21152592 2.72979703 3.89433954 4.34255711 4.5625 8.5 C3.84946388 12.93666918 2.55047235 14.31742089 -1 17 C-4.05704077 18.14639029 -5.48699244 18.14657359 -8.625 17.25 C-11.0239424 15.98739874 -12.42844565 15.20017608 -14 13 C-15.07617124 9.46400877 -15.3192255 7.72245771 -13.8125 4.3125 C-9.78621199 -0.82448816 -6.44284299 -2.13881263 0 0 Z " fill="#C0599D" transform="translate(387,126)"/>
<path d="M0 0 C2.78388975 1.70625501 3.85384206 2.47626739 4.75 5.6875 C4.87375 6.8321875 4.87375 6.8321875 5 8 C5.66 8 6.32 8 7 8 C7.8125 10.1875 7.8125 10.1875 8 13 C6.1875 15.65625 6.1875 15.65625 3 18 C-0.62434822 18.61105389 -4.1502442 18.47237013 -7.8125 18.3125 C-9.28106445 18.27866211 -9.28106445 18.27866211 -10.77929688 18.24414062 C-13.18777455 18.18539727 -15.59309078 18.10332129 -18 18 C-14.81847309 14.18043789 -11.70088001 10.5110596 -7.875 7.3125 C-5.12789759 4.97588415 -2.50053896 2.60472808 0 0 Z M1 5 C2 7 2 7 2 7 Z " fill="#F4A34C" transform="translate(573,123)"/>
<path d="M0 0 C3.08227803 1.84936682 4.6298702 3.0978086 6 6.4375 C6 9.76878143 4.9423681 11.3382363 3 14 C1 16 1 16 -2.375 16.375 C-6 16 -6 16 -8.375 14.375 C-10.35842363 11.47615008 -10.85411447 9.5012527 -11 6 C-9.1673868 0.50216039 -5.47691581 -0.6572299 0 0 Z " fill="#C85898" transform="translate(420,126)"/>
<path d="M0 0 C2.4375 2.1875 2.4375 2.1875 4 5 C4.08104732 8.97131876 3.4688579 10.47755834 0.8125 13.4375 C-2 15 -2 15 -5.125 14.9375 C-9.31553861 13.57102002 -9.31553861 13.57102002 -11 11 C-12.10263732 7.37704882 -12.30146883 5.67830486 -10.75 2.1875 C-7.62500761 -1.71874048 -4.50676509 -1.28764717 0 0 Z " fill="#BA56A2" transform="translate(492,308)"/>
<path d="M0 0 C1.875 1.125 1.875 1.125 3 3 C3.50030235 6.93094707 3.5996142 9.1005787 1.375 12.4375 C-1.69817115 14.45932313 -3.38247881 14.52755517 -7 14 C-10.16252443 12.4614746 -10.83897552 11.46294538 -12 8.125 C-12 4.09929398 -10.79752771 2.79752771 -8 0 C-5.06317146 -1.46841427 -3.13175678 -0.76696084 0 0 Z " fill="#A151AE" transform="translate(492,373)"/>
<path d="M0 0 C2 1.0625 2 1.0625 3 3 C3.49573337 6.89504791 3.58016848 9.09493717 1.4375 12.4375 C-1.90506283 14.58016848 -4.10495209 14.49573337 -8 14 C-9.9375 13 -9.9375 13 -11 11 C-11.52673518 7.43897344 -11.62932095 4.2586419 -10 1 C-6.7413581 -0.62932095 -3.56102656 -0.52673518 0 0 Z " fill="#B052A8" transform="translate(492,330)"/>
<path d="M0 0 C2.375 1.625 2.375 1.625 4 4 C4.60605429 7.63632575 4.47161336 9.28314769 2.4375 12.375 C-0.8994213 14.5996142 -3.06905293 14.50030235 -7 14 C-8.9375 12.9375 -8.9375 12.9375 -10 11 C-10.50030235 7.06905293 -10.5996142 4.8994213 -8.375 1.5625 C-5.28314769 -0.47161336 -3.63632575 -0.60605429 0 0 Z " fill="#A852AB" transform="translate(491,351)"/>
<path d="M0 0 C2.375 0.9375 2.375 0.9375 4.375 3.9375 C4.0508631 7.25990324 3.76723697 8.54526303 1.375 10.9375 C-2.25 10.5625 -2.25 10.5625 -5.625 9.9375 C-6.375 7.1875 -6.375 7.1875 -6.625 3.9375 C-4.61164953 0.91747429 -3.6863031 -0.08776912 0 0 Z " fill="#8C50B2" transform="translate(439.625,433.0625)"/>
<path d="M0 0 C0.66 1.98 1.32 3.96 2 6 C0.3125 8.0625 0.3125 8.0625 -2 10 C-5.39154295 9.83849795 -6.58296757 9.41703243 -9 7 C-9.375 4.5625 -9.375 4.5625 -9 2 C-6.04897468 -1.27891703 -4.09533092 -1.25135112 0 0 Z " fill="#9650B0" transform="translate(477,434)"/>
<path d="M0 0 C2.4375 0.8125 2.4375 0.8125 4.4375 2.8125 C4.0625 6.4375 4.0625 6.4375 3.4375 9.8125 C0.0625 10.4375 0.0625 10.4375 -3.5625 10.8125 C-5.5625 8.8125 -5.5625 8.8125 -5.875 5.875 C-5.5625 2.8125 -5.5625 2.8125 -4.375 0.875 C-2.5625 -0.1875 -2.5625 -0.1875 0 0 Z " fill="#924DB0" transform="translate(456.5625,433.1875)"/>
<path d="M0 0 C2.4375 0.8125 2.4375 0.8125 4.4375 2.8125 C4.0625 6.4375 4.0625 6.4375 3.4375 9.8125 C0.0625 10.4375 0.0625 10.4375 -3.5625 10.8125 C-5.5625 8.8125 -5.5625 8.8125 -5.875 5.875 C-5.5625 2.8125 -5.5625 2.8125 -4.375 0.875 C-2.5625 -0.1875 -2.5625 -0.1875 0 0 Z " fill="#814EB4" transform="translate(421.5625,433.1875)"/>
<path d="M0 0 C2.3125 0.75 2.3125 0.75 3.3125 1.75 C3.5 5.1875 3.5 5.1875 3.3125 8.75 C2.6525 9.41 1.9925 10.07 1.3125 10.75 C-2.3125 10.375 -2.3125 10.375 -5.6875 9.75 C-6.0175 7.44 -6.3475 5.13 -6.6875 2.75 C-4.28017516 0.52099552 -3.34709579 -0.31135775 0 0 Z " fill="#7A4CBC" transform="translate(404.6875,433.25)"/>
<path d="M0 0 C2 3 2 3 1.75 5.5625 C1 8 1 8 -1 10 C-3.4375 10.4375 -3.4375 10.4375 -6 10 C-7.9375 7.8125 -7.9375 7.8125 -9 5 C-8.3125 2.25 -8.3125 2.25 -7 0 C-4.27584084 -1.36207958 -2.87220643 -0.86166193 0 0 Z " fill="#734DBD" transform="translate(389,434)"/>
<path d="M0 0 C2 1 2 1 2 1 Z " fill="#F5A73F" transform="translate(620,139)"/>
<path d="" fill="#F3A948" transform="translate(0,0)"/>
<path d="" fill="#F5A84A" transform="translate(0,0)"/>
<path d="" fill="#F5A943" transform="translate(0,0)"/>
<path d="" fill="#F5A848" transform="translate(0,0)"/>
<path d="" fill="#F7A64A" transform="translate(0,0)"/>
<path d="" fill="#F5A848" transform="translate(0,0)"/>
</svg>
